<svg width="48" height="49" viewBox="0 0 48 49" fill="none" xmlns="http://www.w3.org/2000/svg">
<path d="M37.3333 0C40.2667 0 42.7778 1.04444 44.8667 3.13333C46.9556 5.22222 48 7.73333 48 10.6667C48 11.1556 47.9667 11.8111 47.9 12.6333C47.8333 13.4556 47.7333 14.4 47.6 15.4667L43.9333 42.3333C43.7111 44.1556 42.9111 45.5667 41.5333 46.5667C40.1556 47.5667 38.6889 48.0667 37.1333 48.0667C36.2 48.0667 35.2889 47.8667 34.4 47.4667C33.5111 47.0667 32.7556 46.4222 32.1333 45.5333L25 35.1333C24.9111 35 24.7667 34.8889 24.5667 34.8C24.3667 34.7111 24.1556 34.6667 23.9333 34.6667C23.8444 34.6667 23.4889 34.8667 22.8667 35.2667L15.9333 45.3333C15.3111 46.2667 14.5333 46.9556 13.6 47.4C12.6667 47.8444 11.7111 48.0667 10.7333 48.0667C9.17778 48.0667 7.72222 47.5667 6.36667 46.5667C5.01111 45.5667 4.22222 44.1333 4 42.2667L0.4 15.4667C0.266667 14.4 0.166667 13.4556 0.1 12.6333C0.0333333 11.8111 0 11.1556 0 10.6667C0 7.73333 1.04444 5.22222 3.13333 3.13333C5.22222 1.04444 7.73333 0 10.6667 0C12.2667 0 13.5444 0.211111 14.5 0.633333C15.4556 1.05556 16.3778 1.51111 17.2667 2C18.1556 2.48889 19.1 2.94444 20.1 3.36667C21.1 3.78889 22.4 4 24 4C25.6 4 26.9 3.78889 27.9 3.36667C28.9 2.94444 29.8444 2.48889 30.7333 2C31.6222 1.51111 32.5556 1.05556 33.5333 0.633333C34.5111 0.211111 35.7778 0 37.3333 0ZM37.3333 4C36.3111 4 35.4222 4.15556 34.6667 4.46667C33.9111 4.77778 33.1333 5.17778 32.3333 5.66667C30.9111 6.46667 29.5889 7.05556 28.3667 7.43333C27.1444 7.81111 25.6889 8 24 8C22.3111 8 20.8667 7.81111 19.6667 7.43333C18.4667 7.05556 17.1556 6.46667 15.7333 5.66667C14.9333 5.17778 14.1444 4.77778 13.3667 4.46667C12.5889 4.15556 11.6889 4 10.6667 4C8.8 4 7.22222 4.64444 5.93333 5.93333C4.64444 7.22222 4 8.8 4 10.6667C4 11.0222 4.02222 11.5556 4.06667 12.2667C4.11111 12.9778 4.2 13.8 4.33333 14.7333L8 41.6667C8.08889 42.4222 8.41111 43 8.96667 43.4C9.52222 43.8 10.1111 44 10.7333 44C11.1333 44 11.5111 43.9 11.8667 43.7C12.2222 43.5 12.5333 43.2222 12.8 42.8667L19.5333 33C20.0667 32.2444 20.7333 31.6667 21.5333 31.2667C22.3333 30.8667 23.1556 30.6667 24 30.6667C24.8444 30.6667 25.6556 30.8667 26.4333 31.2667C27.2111 31.6667 27.8667 32.2444 28.4 33L35.2667 43.0667C35.4889 43.4222 35.7778 43.6778 36.1333 43.8333C36.4889 43.9889 36.8444 44.0667 37.2 44.0667C37.8222 44.0667 38.4111 43.8556 38.9667 43.4333C39.5222 43.0111 39.8444 42.4667 39.9333 41.8L43.6667 14.7333C43.8 13.8 43.8889 12.9778 43.9333 12.2667C43.9778 11.5556 44 11.0222 44 10.6667C44 8.8 43.3556 7.22222 42.0667 5.93333C40.7778 4.64444 39.2 4 37.3333 4Z" fill="#5F6368"/>
</svg>
